<svg viewBox="-638 0 2176 560" xmlns="http://www.w3.org/2000/svg" xmlns:xlink="http://www.w3.org/1999/xlink">
<defs>
  <linearGradient id="sky" x1="0" y1="0" x2="0" y2="1">
    <stop offset="0" stop-color="#F7E9C9"/>
    <stop offset="1" stop-color="#F3F2F0"/>
  </linearGradient>
  <linearGradient id="river" x1="0" y1="0" x2="0" y2="1">
    <stop offset="0" stop-color="#7FA39A"/>
    <stop offset="1" stop-color="#3F6259"/>
  </linearGradient>
</defs>
<rect x="-960" y="0" width="2880" height="640" fill="url(#sky)"/>
<circle cx="740" cy="110" r="62" fill="#F2AF4B" opacity="0.9"/>
<g stroke="#05290D" stroke-width="3" fill="none" opacity="0.5"><path d="M520,60 q10,-12 20,0 q10,-12 20,0"/><path d="M580,110 q8,-10 16,0 q8,-10 16,0"/><path d="M460,40 q9,-11 18,0 q9,-11 18,0"/></g>
<rect x="-960" y="460" width="2880" height="180" fill="url(#river)"/>
<g id="skyline"><rect x="185" y="476" width="118" height="2" fill="#F3F2F0" opacity="0.10"/><rect x="222" y="485" width="246" height="2" fill="#F3F2F0" opacity="0.10"/><rect x="44" y="494" width="98" height="2" fill="#F3F2F0" opacity="0.10"/><rect x="294" y="503" width="104" height="2" fill="#F3F2F0" opacity="0.10"/><rect x="207" y="512" width="229" height="2" fill="#F3F2F0" opacity="0.10"/><rect x="49" y="521" width="209" height="2" fill="#F3F2F0" opacity="0.10"/><rect x="129" y="530" width="89" height="2" fill="#F3F2F0" opacity="0.10"/><rect x="64" y="539" width="191" height="2" fill="#F3F2F0" opacity="0.10"/><rect x="234" y="548" width="97" height="2" fill="#F3F2F0" opacity="0.10"/><rect x="143" y="557" width="103" height="2" fill="#F3F2F0" opacity="0.10"/><rect x="237" y="566" width="95" height="2" fill="#F3F2F0" opacity="0.10"/><rect x="83" y="575" width="137" height="2" fill="#F3F2F0" opacity="0.10"/><rect x="51" y="584" width="227" height="2" fill="#F3F2F0" opacity="0.10"/><rect x="223" y="593" width="92" height="2" fill="#F3F2F0" opacity="0.10"/><rect x="133" y="602" width="91" height="2" fill="#F3F2F0" opacity="0.10"/><rect x="88" y="611" width="154" height="2" fill="#F3F2F0" opacity="0.10"/><path d="M0,470 L0,260 Q220,200 480,250 T900,230 L900,470 Z" fill="#E7DAC0" opacity="0.55"/><rect x="0" y="222" width="51" height="238" fill="#7C5A43"/><path d="M-3,222 L25.5,202 L54,222 Z" fill="#05290D"/><rect x="7.0" y="232.0" width="10" height="13" fill="#F3F2F0" opacity="0.55"/><rect x="25.5" y="232.0" width="10" height="13" fill="#F3F2F0" opacity="0.55"/><rect x="7.0" y="269.3" width="10" height="13" fill="#F3F2F0" opacity="0.55"/><rect x="25.5" y="269.3" width="10" height="13" fill="#F3F2F0" opacity="0.55"/><rect x="7.0" y="306.7" width="10" height="13" fill="#F3F2F0" opacity="0.55"/><rect x="25.5" y="306.7" width="10" height="13" fill="#F3F2F0" opacity="0.55"/><rect x="7.0" y="344.0" width="10" height="13" fill="#F3F2F0" opacity="0.55"/><rect x="25.5" y="344.0" width="10" height="13" fill="#F3F2F0" opacity="0.55"/><rect x="7.0" y="381.3" width="10" height="13" fill="#F3F2F0" opacity="0.55"/><rect x="25.5" y="381.3" width="10" height="13" fill="#F3F2F0" opacity="0.55"/><rect x="7.0" y="418.7" width="10" height="13" fill="#F3F2F0" opacity="0.55"/><rect x="25.5" y="418.7" width="10" height="13" fill="#F3F2F0" opacity="0.55"/><rect x="57" y="169" width="47" height="291" fill="#F3F2F0"/><path d="M54,169 L80.5,149 L107,169 Z" fill="#05290D"/><rect x="64.0" y="179.0" width="10" height="13" fill="#F3F2F0" opacity="0.55"/><rect x="64.0" y="213.6" width="10" height="13" fill="#F3F2F0" opacity="0.55"/><rect x="64.0" y="248.2" width="10" height="13" fill="#F3F2F0" opacity="0.55"/><rect x="64.0" y="282.9" width="10" height="13" fill="#F3F2F0" opacity="0.55"/><rect x="64.0" y="317.5" width="10" height="13" fill="#F3F2F0" opacity="0.55"/><rect x="64.0" y="352.1" width="10" height="13" fill="#F3F2F0" opacity="0.55"/><rect x="64.0" y="386.8" width="10" height="13" fill="#F3F2F0" opacity="0.55"/><rect x="64.0" y="421.4" width="10" height="13" fill="#F3F2F0" opacity="0.55"/><rect x="110" y="159" width="56" height="301" fill="#9B5B43"/><path d="M107,159 L138.0,139 L169,159 Z" fill="#7A3B22"/><rect x="117.0" y="169.0" width="10" height="13" fill="#F3F2F0" opacity="0.55"/><rect x="138.0" y="169.0" width="10" height="13" fill="#F3F2F0" opacity="0.55"/><rect x="117.0" y="204.9" width="10" height="13" fill="#F3F2F0" opacity="0.55"/><rect x="138.0" y="204.9" width="10" height="13" fill="#F3F2F0" opacity="0.55"/><rect x="117.0" y="240.8" width="10" height="13" fill="#F3F2F0" opacity="0.55"/><rect x="138.0" y="240.8" width="10" height="13" fill="#F3F2F0" opacity="0.55"/><rect x="117.0" y="276.6" width="10" height="13" fill="#F3F2F0" opacity="0.55"/><rect x="138.0" y="276.6" width="10" height="13" fill="#F3F2F0" opacity="0.55"/><rect x="117.0" y="312.5" width="10" height="13" fill="#F3F2F0" opacity="0.55"/><rect x="138.0" y="312.5" width="10" height="13" fill="#F3F2F0" opacity="0.55"/><rect x="117.0" y="348.4" width="10" height="13" fill="#F3F2F0" opacity="0.55"/><rect x="138.0" y="348.4" width="10" height="13" fill="#F3F2F0" opacity="0.55"/><rect x="117.0" y="384.2" width="10" height="13" fill="#F3F2F0" opacity="0.55"/><rect x="138.0" y="384.2" width="10" height="13" fill="#F3F2F0" opacity="0.55"/><rect x="117.0" y="420.1" width="10" height="13" fill="#F3F2F0" opacity="0.55"/><rect x="138.0" y="420.1" width="10" height="13" fill="#F3F2F0" opacity="0.55"/><rect x="168" y="149" width="55" height="311" fill="#E8B96B"/><path d="M165,149 L195.5,129 L226,149 Z" fill="#05290D"/><rect x="175.0" y="159.0" width="10" height="13" fill="#F3F2F0" opacity="0.55"/><rect x="195.5" y="159.0" width="10" height="13" fill="#F3F2F0" opacity="0.55"/><rect x="175.0" y="196.1" width="10" height="13" fill="#F3F2F0" opacity="0.55"/><rect x="195.5" y="196.1" width="10" height="13" fill="#F3F2F0" opacity="0.55"/><rect x="175.0" y="233.2" width="10" height="13" fill="#F3F2F0" opacity="0.55"/><rect x="195.5" y="233.2" width="10" height="13" fill="#F3F2F0" opacity="0.55"/><rect x="175.0" y="270.4" width="10" height="13" fill="#F3F2F0" opacity="0.55"/><rect x="195.5" y="270.4" width="10" height="13" fill="#F3F2F0" opacity="0.55"/><rect x="175.0" y="307.5" width="10" height="13" fill="#F3F2F0" opacity="0.55"/><rect x="195.5" y="307.5" width="10" height="13" fill="#F3F2F0" opacity="0.55"/><rect x="175.0" y="344.6" width="10" height="13" fill="#F3F2F0" opacity="0.55"/><rect x="195.5" y="344.6" width="10" height="13" fill="#F3F2F0" opacity="0.55"/><rect x="175.0" y="381.8" width="10" height="13" fill="#F3F2F0" opacity="0.55"/><rect x="195.5" y="381.8" width="10" height="13" fill="#F3F2F0" opacity="0.55"/><rect x="175.0" y="418.9" width="10" height="13" fill="#F3F2F0" opacity="0.55"/><rect x="195.5" y="418.9" width="10" height="13" fill="#F3F2F0" opacity="0.55"/><rect x="229" y="177" width="44" height="283" fill="#7C5A43"/><path d="M226,177 L251.0,157 L276,177 Z" fill="#22302A"/><rect x="236.0" y="187.0" width="10" height="13" fill="#F3F2F0" opacity="0.55"/><rect x="236.0" y="225.4" width="10" height="13" fill="#F3F2F0" opacity="0.55"/><rect x="236.0" y="263.9" width="10" height="13" fill="#F3F2F0" opacity="0.55"/><rect x="236.0" y="302.3" width="10" height="13" fill="#F3F2F0" opacity="0.55"/><rect x="236.0" y="340.7" width="10" height="13" fill="#F3F2F0" opacity="0.55"/><rect x="236.0" y="379.1" width="10" height="13" fill="#F3F2F0" opacity="0.55"/><rect x="236.0" y="417.6" width="10" height="13" fill="#F3F2F0" opacity="0.55"/><rect x="277" y="166" width="52" height="294" fill="#EFD9B4"/><path d="M274,166 L303.0,146 L332,166 Z" fill="#7A3B22"/><rect x="284.0" y="176.0" width="10" height="13" fill="#F3F2F0" opacity="0.55"/><rect x="303.0" y="176.0" width="10" height="13" fill="#F3F2F0" opacity="0.55"/><rect x="284.0" y="211.0" width="10" height="13" fill="#F3F2F0" opacity="0.55"/><rect x="303.0" y="211.0" width="10" height="13" fill="#F3F2F0" opacity="0.55"/><rect x="284.0" y="246.0" width="10" height="13" fill="#F3F2F0" opacity="0.55"/><rect x="303.0" y="246.0" width="10" height="13" fill="#F3F2F0" opacity="0.55"/><rect x="284.0" y="281.0" width="10" height="13" fill="#F3F2F0" opacity="0.55"/><rect x="303.0" y="281.0" width="10" height="13" fill="#F3F2F0" opacity="0.55"/><rect x="284.0" y="316.0" width="10" height="13" fill="#F3F2F0" opacity="0.55"/><rect x="303.0" y="316.0" width="10" height="13" fill="#F3F2F0" opacity="0.55"/><rect x="284.0" y="351.0" width="10" height="13" fill="#F3F2F0" opacity="0.55"/><rect x="303.0" y="351.0" width="10" height="13" fill="#F3F2F0" opacity="0.55"/><rect x="284.0" y="386.0" width="10" height="13" fill="#F3F2F0" opacity="0.55"/><rect x="303.0" y="386.0" width="10" height="13" fill="#F3F2F0" opacity="0.55"/><rect x="284.0" y="421.0" width="10" height="13" fill="#F3F2F0" opacity="0.55"/><rect x="303.0" y="421.0" width="10" height="13" fill="#F3F2F0" opacity="0.55"/><rect x="333" y="217" width="45" height="243" fill="#9B5B43"/><path d="M330,217 L355.5,197 L381,217 Z" fill="#05290D"/><rect x="340.0" y="227.0" width="10" height="13" fill="#F3F2F0" opacity="0.55"/><rect x="340.0" y="265.2" width="10" height="13" fill="#F3F2F0" opacity="0.55"/><rect x="340.0" y="303.3" width="10" height="13" fill="#F3F2F0" opacity="0.55"/><rect x="340.0" y="341.5" width="10" height="13" fill="#F3F2F0" opacity="0.55"/><rect x="340.0" y="379.7" width="10" height="13" fill="#F3F2F0" opacity="0.55"/><rect x="340.0" y="417.8" width="10" height="13" fill="#F3F2F0" opacity="0.55"/><rect x="384" y="173" width="47" height="287" fill="#EFD9B4"/><path d="M381,173 L407.5,153 L434,173 Z" fill="#7A3B22"/><rect x="391.0" y="183.0" width="10" height="13" fill="#F3F2F0" opacity="0.55"/><rect x="391.0" y="222.0" width="10" height="13" fill="#F3F2F0" opacity="0.55"/><rect x="391.0" y="261.0" width="10" height="13" fill="#F3F2F0" opacity="0.55"/><rect x="391.0" y="300.0" width="10" height="13" fill="#F3F2F0" opacity="0.55"/><rect x="391.0" y="339.0" width="10" height="13" fill="#F3F2F0" opacity="0.55"/><rect x="391.0" y="378.0" width="10" height="13" fill="#F3F2F0" opacity="0.55"/><rect x="391.0" y="417.0" width="10" height="13" fill="#F3F2F0" opacity="0.55"/><rect x="480" y="193" width="47" height="267" fill="#E8B96B"/><path d="M477,193 L503.5,173 L530,193 Z" fill="#05290D"/><rect x="487.0" y="203.0" width="10" height="13" fill="#F3F2F0" opacity="0.55"/><rect x="487.0" y="239.1" width="10" height="13" fill="#F3F2F0" opacity="0.55"/><rect x="487.0" y="275.3" width="10" height="13" fill="#F3F2F0" opacity="0.55"/><rect x="487.0" y="311.4" width="10" height="13" fill="#F3F2F0" opacity="0.55"/><rect x="487.0" y="347.6" width="10" height="13" fill="#F3F2F0" opacity="0.55"/><rect x="487.0" y="383.7" width="10" height="13" fill="#F3F2F0" opacity="0.55"/><rect x="487.0" y="419.9" width="10" height="13" fill="#F3F2F0" opacity="0.55"/><rect x="533" y="249" width="51" height="211" fill="#5C7A6E"/><path d="M530,249 L558.5,229 L587,249 Z" fill="#3A2A1E"/><rect x="540.0" y="259.0" width="10" height="13" fill="#F3F2F0" opacity="0.55"/><rect x="558.5" y="259.0" width="10" height="13" fill="#F3F2F0" opacity="0.55"/><rect x="540.0" y="298.4" width="10" height="13" fill="#F3F2F0" opacity="0.55"/><rect x="558.5" y="298.4" width="10" height="13" fill="#F3F2F0" opacity="0.55"/><rect x="540.0" y="337.8" width="10" height="13" fill="#F3F2F0" opacity="0.55"/><rect x="558.5" y="337.8" width="10" height="13" fill="#F3F2F0" opacity="0.55"/><rect x="540.0" y="377.2" width="10" height="13" fill="#F3F2F0" opacity="0.55"/><rect x="558.5" y="377.2" width="10" height="13" fill="#F3F2F0" opacity="0.55"/><rect x="540.0" y="416.6" width="10" height="13" fill="#F3F2F0" opacity="0.55"/><rect x="558.5" y="416.6" width="10" height="13" fill="#F3F2F0" opacity="0.55"/><rect x="589" y="265" width="51" height="195" fill="#E8B96B"/><path d="M586,265 L614.5,245 L643,265 Z" fill="#7A3B22"/><rect x="596.0" y="275.0" width="10" height="13" fill="#F3F2F0" opacity="0.55"/><rect x="614.5" y="275.0" width="10" height="13" fill="#F3F2F0" opacity="0.55"/><rect x="596.0" y="311.2" width="10" height="13" fill="#F3F2F0" opacity="0.55"/><rect x="614.5" y="311.2" width="10" height="13" fill="#F3F2F0" opacity="0.55"/><rect x="596.0" y="347.4" width="10" height="13" fill="#F3F2F0" opacity="0.55"/><rect x="614.5" y="347.4" width="10" height="13" fill="#F3F2F0" opacity="0.55"/><rect x="596.0" y="383.6" width="10" height="13" fill="#F3F2F0" opacity="0.55"/><rect x="614.5" y="383.6" width="10" height="13" fill="#F3F2F0" opacity="0.55"/><rect x="596.0" y="419.8" width="10" height="13" fill="#F3F2F0" opacity="0.55"/><rect x="614.5" y="419.8" width="10" height="13" fill="#F3F2F0" opacity="0.55"/><rect x="644" y="226" width="60" height="234" fill="#C97B5A"/><path d="M641,226 L674.0,206 L707,226 Z" fill="#22302A"/><rect x="651.0" y="236.0" width="10" height="13" fill="#F3F2F0" opacity="0.55"/><rect x="674.0" y="236.0" width="10" height="13" fill="#F3F2F0" opacity="0.55"/><rect x="651.0" y="272.7" width="10" height="13" fill="#F3F2F0" opacity="0.55"/><rect x="674.0" y="272.7" width="10" height="13" fill="#F3F2F0" opacity="0.55"/><rect x="651.0" y="309.3" width="10" height="13" fill="#F3F2F0" opacity="0.55"/><rect x="674.0" y="309.3" width="10" height="13" fill="#F3F2F0" opacity="0.55"/><rect x="651.0" y="346.0" width="10" height="13" fill="#F3F2F0" opacity="0.55"/><rect x="674.0" y="346.0" width="10" height="13" fill="#F3F2F0" opacity="0.55"/><rect x="651.0" y="382.7" width="10" height="13" fill="#F3F2F0" opacity="0.55"/><rect x="674.0" y="382.7" width="10" height="13" fill="#F3F2F0" opacity="0.55"/><rect x="651.0" y="419.3" width="10" height="13" fill="#F3F2F0" opacity="0.55"/><rect x="674.0" y="419.3" width="10" height="13" fill="#F3F2F0" opacity="0.55"/><rect x="710" y="212" width="63" height="248" fill="#E8B96B"/><path d="M707,212 L741.5,192 L776,212 Z" fill="#05290D"/><rect x="717.0" y="222.0" width="10" height="13" fill="#F3F2F0" opacity="0.55"/><rect x="741.5" y="222.0" width="10" height="13" fill="#F3F2F0" opacity="0.55"/><rect x="717.0" y="261.0" width="10" height="13" fill="#F3F2F0" opacity="0.55"/><rect x="741.5" y="261.0" width="10" height="13" fill="#F3F2F0" opacity="0.55"/><rect x="717.0" y="300.0" width="10" height="13" fill="#F3F2F0" opacity="0.55"/><rect x="741.5" y="300.0" width="10" height="13" fill="#F3F2F0" opacity="0.55"/><rect x="717.0" y="339.0" width="10" height="13" fill="#F3F2F0" opacity="0.55"/><rect x="741.5" y="339.0" width="10" height="13" fill="#F3F2F0" opacity="0.55"/><rect x="717.0" y="378.0" width="10" height="13" fill="#F3F2F0" opacity="0.55"/><rect x="741.5" y="378.0" width="10" height="13" fill="#F3F2F0" opacity="0.55"/><rect x="717.0" y="417.0" width="10" height="13" fill="#F3F2F0" opacity="0.55"/><rect x="741.5" y="417.0" width="10" height="13" fill="#F3F2F0" opacity="0.55"/><rect x="777" y="181" width="53" height="279" fill="#E8B96B"/><path d="M774,181 L803.5,161 L833,181 Z" fill="#05290D"/><rect x="784.0" y="191.0" width="10" height="13" fill="#F3F2F0" opacity="0.55"/><rect x="803.5" y="191.0" width="10" height="13" fill="#F3F2F0" opacity="0.55"/><rect x="784.0" y="228.9" width="10" height="13" fill="#F3F2F0" opacity="0.55"/><rect x="803.5" y="228.9" width="10" height="13" fill="#F3F2F0" opacity="0.55"/><rect x="784.0" y="266.7" width="10" height="13" fill="#F3F2F0" opacity="0.55"/><rect x="803.5" y="266.7" width="10" height="13" fill="#F3F2F0" opacity="0.55"/><rect x="784.0" y="304.6" width="10" height="13" fill="#F3F2F0" opacity="0.55"/><rect x="803.5" y="304.6" width="10" height="13" fill="#F3F2F0" opacity="0.55"/><rect x="784.0" y="342.4" width="10" height="13" fill="#F3F2F0" opacity="0.55"/><rect x="803.5" y="342.4" width="10" height="13" fill="#F3F2F0" opacity="0.55"/><rect x="784.0" y="380.3" width="10" height="13" fill="#F3F2F0" opacity="0.55"/><rect x="803.5" y="380.3" width="10" height="13" fill="#F3F2F0" opacity="0.55"/><rect x="784.0" y="418.1" width="10" height="13" fill="#F3F2F0" opacity="0.55"/><rect x="803.5" y="418.1" width="10" height="13" fill="#F3F2F0" opacity="0.55"/><rect x="834" y="197" width="58" height="263" fill="#EFD9B4"/><path d="M831,197 L863.0,177 L895,197 Z" fill="#7A3B22"/><rect x="841.0" y="207.0" width="10" height="13" fill="#F3F2F0" opacity="0.55"/><rect x="863.0" y="207.0" width="10" height="13" fill="#F3F2F0" opacity="0.55"/><rect x="841.0" y="242.6" width="10" height="13" fill="#F3F2F0" opacity="0.55"/><rect x="863.0" y="242.6" width="10" height="13" fill="#F3F2F0" opacity="0.55"/><rect x="841.0" y="278.1" width="10" height="13" fill="#F3F2F0" opacity="0.55"/><rect x="863.0" y="278.1" width="10" height="13" fill="#F3F2F0" opacity="0.55"/><rect x="841.0" y="313.7" width="10" height="13" fill="#F3F2F0" opacity="0.55"/><rect x="863.0" y="313.7" width="10" height="13" fill="#F3F2F0" opacity="0.55"/><rect x="841.0" y="349.3" width="10" height="13" fill="#F3F2F0" opacity="0.55"/><rect x="863.0" y="349.3" width="10" height="13" fill="#F3F2F0" opacity="0.55"/><rect x="841.0" y="384.9" width="10" height="13" fill="#F3F2F0" opacity="0.55"/><rect x="863.0" y="384.9" width="10" height="13" fill="#F3F2F0" opacity="0.55"/><rect x="841.0" y="420.4" width="10" height="13" fill="#F3F2F0" opacity="0.55"/><rect x="863.0" y="420.4" width="10" height="13" fill="#F3F2F0" opacity="0.55"/><rect x="897" y="226" width="59" height="234" fill="#C9764F"/><path d="M894,226 L926.5,206 L959,226 Z" fill="#22302A"/><rect x="904.0" y="236.0" width="10" height="13" fill="#F3F2F0" opacity="0.55"/><rect x="926.5" y="236.0" width="10" height="13" fill="#F3F2F0" opacity="0.55"/><rect x="904.0" y="272.7" width="10" height="13" fill="#F3F2F0" opacity="0.55"/><rect x="926.5" y="272.7" width="10" height="13" fill="#F3F2F0" opacity="0.55"/><rect x="904.0" y="309.3" width="10" height="13" fill="#F3F2F0" opacity="0.55"/><rect x="926.5" y="309.3" width="10" height="13" fill="#F3F2F0" opacity="0.55"/><rect x="904.0" y="346.0" width="10" height="13" fill="#F3F2F0" opacity="0.55"/><rect x="926.5" y="346.0" width="10" height="13" fill="#F3F2F0" opacity="0.55"/><rect x="904.0" y="382.7" width="10" height="13" fill="#F3F2F0" opacity="0.55"/><rect x="926.5" y="382.7" width="10" height="13" fill="#F3F2F0" opacity="0.55"/><rect x="904.0" y="419.3" width="10" height="13" fill="#F3F2F0" opacity="0.55"/><rect x="926.5" y="419.3" width="10" height="13" fill="#F3F2F0" opacity="0.55"/></g>
<use href="#skyline" transform="scale(-1,1)"/>
<use href="#skyline" transform="translate(1912,0) scale(-1,1)"/>
<path d="M90,400 C 240,210 660,210 810,400" stroke="#05290D" stroke-width="11" fill="none"/>
<path d="M40,360 C 240,330 660,330 860,360" stroke="#05290D" stroke-width="15" fill="none"/>
<rect x="74" y="360" width="17" height="105" fill="#05290D"/>
<rect x="809" y="360" width="17" height="105" fill="#05290D"/>
<g opacity="0.85"><path d="M390,510 q40,18 80,0 l-8,12 -64,0 Z" fill="#05290D"/><rect x="422" y="490" width="3" height="20" fill="#05290D"/><path d="M425,490 l22,15 -22,4 Z" fill="#F2AF4B"/></g>
</svg>
